# xmcd
#
# Track frame offsets:
#	150
#	14199
#	31759
#	47328
#	60363
#	74168
#	91382
#	103445
#	115250
#	128518
#	143770
#	161635
#	180334
#	198610
#
# Disc length: 2895 seconds
#
# Revision: 1
# Processed by: cddbd v1.5.2PL0 Copyright (c) Steve Scherf et al.
# Submitted via: audiograbber 1.83.01
#
DISCID=c30b4d0e
DTITLE=Bobby Lee Caldwell - Highway 44
DYEAR=1999
DGENRE=Country
TTITLE0=The Gold Is In This Ring
TTITLE1=Janie압 Song
TTITLE2=Highway 44
TTITLE3=There압 A Memory In My Heart
TTITLE4=Doing Without
TTITLE5=She압 A Dance Hall Lady
TTITLE6=Youre Working On Leaving Me
TTITLE7=Don앖 Watch Me Fall Apart
TTITLE8=West Texas Lady
TTITLE9=Ten Minutea After Five
TTITLE10=She압 A Lady By Day, Lover By Night
TTITLE11=The Sounds Of The Universe
TTITLE12=Star Child
TTITLE13=Gather round My Chrildren
EXTD=
EXTT0=
EXTT1=
EXTT2=
EXTT3=
EXTT4=
EXTT5=
EXTT6=
EXTT7=
EXTT8=
EXTT9=
EXTT10=
EXTT11=
EXTT12=
EXTT13=
PLAYORDER=
